<?xml version="1.0" encoding="utf-8"?>
<!-- Generator: Adobe Illustrator 18.1.1, SVG Export Plug-In . SVG Version: 6.00 Build 0)  -->
<svg version="1.1" id="OBJECTS" xmlns="http://www.w3.org/2000/svg" xmlns:xlink="http://www.w3.org/1999/xlink" x="0px" y="0px"
	 viewBox="0 449.8 612 342.2" enable-background="new 0 449.8 612 342.2" xml:space="preserve">
<g>
	<g>
		<g>
			<path fill="#053272" d="M33.6,689.5h7.5l0.2,40.4h-7.5L33.6,689.5z"/>
			<path fill="#053272" d="M58.5,727.6c-3.4-1.8-5.9-4.2-7.7-7.4c-1.9-3.2-2.9-6.7-2.9-10.7s1-7.5,2.7-10.7c1.9-3.2,4.5-5.6,7.7-7.4
				s6.9-2.7,11.1-2.7c3.4,0,6.2,0.5,9.1,1.8c2.7,1.1,5,2.9,6.9,5l-4.8,4.6c-2.9-3.2-6.6-4.6-10.7-4.6c-2.7,0-5.3,0.6-7.4,1.8
				c-2.2,1.3-3.8,2.9-5.1,5.1c-1.3,2.1-1.8,4.6-1.8,7.4c0,2.7,0.6,5.1,1.9,7.4c1.3,2.1,2.9,3.8,5.1,5c2.2,1.3,4.6,1.8,7.4,1.8
				c4.3,0,7.9-1.6,10.7-4.8l4.8,4.6c-1.9,2.2-4.2,3.8-6.9,5c-2.7,1.1-5.8,1.8-9.1,1.8C65.4,730.3,61.7,729.5,58.5,727.6z"/>
			<path fill="#053272" d="M98.2,727.6c-3.4-1.8-5.9-4.3-7.9-7.4c-1.9-3.2-2.9-6.7-2.9-10.6c0-3.8,1-7.5,2.7-10.6
				c1.9-3.2,4.5-5.6,7.7-7.5c3.4-1.8,7-2.7,11.1-2.7c4.2,0,7.9,0.8,11.2,2.7c3.4,1.8,5.9,4.2,7.9,7.4c1.9,3.2,2.9,6.7,2.9,10.7
				s-1,7.5-2.7,10.7c-1.9,3.2-4.5,5.6-7.7,7.4c-3.4,1.8-7,2.7-11.1,2.7C105.1,730.3,101.4,729.4,98.2,727.6z M116.5,721.8
				c2.1-1.3,3.8-2.9,5.1-5.1c1.3-2.2,1.8-4.6,1.8-7.4s-0.6-5.1-1.9-7.4c-1.3-2.2-2.9-3.8-5.1-5.1c-2.1-1.3-4.6-1.8-7.2-1.8
				c-2.7,0-5.1,0.6-7.2,1.8c-2.1,1.3-3.8,2.9-5.1,5.1c-1.3,2.2-1.8,4.6-1.8,7.4s0.6,5.1,1.9,7.2c1.3,2.2,2.9,3.8,5.1,5.1
				c2.1,1.3,4.6,1.8,7.2,1.8C112,723.6,114.4,723,116.5,721.8z"/>
			<path fill="#053272" d="M137.5,689.3h7.5l0.2,34h21.1v6.4l-28.7,0.2L137.5,689.3z"/>
			<path fill="#053272" d="M196.3,690.8c2.6,1.1,4.6,2.7,5.9,5c1.4,2.1,2.1,4.6,2.1,7.7c0,2.9-0.6,5.4-2.1,7.7
				c-1.4,2.2-3.4,3.8-5.9,5c-2.6,1.1-5.6,1.8-9.1,1.8H178v11.7h-7.5l-0.2-40.4H187C190.6,689,193.7,689.5,196.3,690.8z M194.3,709.3
				c1.8-1.4,2.6-3.4,2.6-5.9c0-2.6-0.8-4.5-2.6-5.9c-1.8-1.4-4.2-2.1-7.4-2.1h-8.8v16h8.8C190.2,711.4,192.6,710.6,194.3,709.3z"/>
			<path fill="#053272" d="M210.4,688.8h7.5l0.2,40.4h-7.5L210.4,688.8z"/>
			<path fill="#053272" d="M230.9,728.4c-2.9-0.8-5.3-2.1-6.9-3.5l2.6-5.8c1.6,1.3,3.7,2.4,6.1,3.2c2.4,0.8,4.8,1.3,7.2,1.3
				c3,0,5.3-0.5,6.7-1.4c1.4-1,2.2-2.2,2.2-3.8c0-1.1-0.5-2.1-1.3-2.9s-1.9-1.3-3.2-1.8s-3-1-5.1-1.4c-3-0.6-5.6-1.4-7.5-2.2
				s-3.5-1.9-5-3.4c-1.4-1.6-2.1-3.7-2.1-6.2c0-2.2,0.6-4.3,1.8-6.1c1.3-1.8,3-3.4,5.4-4.3c2.4-1,5.4-1.6,9-1.6c2.4,0,4.8,0.3,7.2,1
				c2.4,0.6,4.5,1.4,6.2,2.6l-2.4,5.8c-1.8-1-3.7-1.8-5.6-2.4c-1.9-0.5-3.8-0.8-5.6-0.8c-2.9,0-5.1,0.5-6.6,1.4
				c-1.4,1-2.1,2.4-2.1,4c0,1.1,0.5,2.1,1.3,2.9s1.9,1.3,3.2,1.8s3,1,5.1,1.4c3,0.6,5.4,1.4,7.4,2.1c1.9,0.8,3.5,1.9,5,3.4
				c1.4,1.6,2.1,3.7,2.1,6.2c0,2.2-0.6,4.3-1.8,6.1c-1.3,1.8-3,3.2-5.4,4.3c-2.4,1.1-5.4,1.6-9,1.6
				C236.8,729.8,233.9,729.4,230.9,728.4z"/>
			<path fill="#053272" d="M270,727c-3.4-1.8-5.9-4.3-7.9-7.4c-1.9-3.2-2.9-6.7-2.9-10.6c0-3.9,1-7.5,2.7-10.6
				c1.9-3.2,4.5-5.6,7.7-7.5c3.4-1.8,7-2.7,11.1-2.7c4.2,0,7.9,0.8,11.2,2.7c3.4,1.8,5.9,4.2,7.9,7.4c2,3.2,2.9,6.7,2.9,10.7
				s-1,7.5-2.7,10.7c-1.9,3.2-4.5,5.6-7.7,7.4c-3.4,1.8-7,2.7-11.1,2.7C277,729.8,273.3,728.8,270,727z M288.4,721.3
				c2.1-1.3,3.8-2.9,5.1-5.1s1.8-4.6,1.8-7.4c0-2.7-0.6-5.1-1.9-7.4c-1.3-2.2-2.9-3.8-5.1-5.1c-2.1-1.3-4.6-1.8-7.2-1.8
				c-2.7,0-5.1,0.6-7.2,1.8c-2.1,1.3-3.8,2.9-5.1,5.1s-1.8,4.6-1.8,7.4c0,2.7,0.6,5.1,1.9,7.4c1.3,2.2,2.9,3.8,5.1,5.1
				c2.1,1.3,4.6,1.8,7.2,1.8C283.9,723.1,286.3,722.5,288.4,721.3z"/>
			<path fill="#053272" d="M312.9,728.3c-2.9-0.8-5.3-2.1-6.9-3.5l2.6-5.8c1.6,1.3,3.7,2.4,6.1,3.2c2.4,0.8,4.8,1.3,7.2,1.3
				c3,0,5.3-0.5,6.7-1.4c1.4-1,2.2-2.2,2.2-3.8c0-1.1-0.5-2.1-1.3-2.9s-1.9-1.3-3.2-1.8c-1.3-0.5-3-1-5.1-1.4
				c-3-0.8-5.6-1.4-7.5-2.2c-1.9-0.8-3.5-1.9-5-3.4c-1.4-1.6-2.1-3.7-2.1-6.2c0-2.2,0.6-4.3,1.8-6.1c1.3-1.8,3-3.4,5.4-4.3
				c2.4-1,5.4-1.6,9-1.6c2.4,0,4.8,0.3,7.2,1c2.4,0.6,4.5,1.4,6.2,2.6l-2.4,5.8c-1.8-1-3.7-1.8-5.6-2.4c-1.9-0.5-3.8-0.8-5.6-0.8
				c-2.9,0-5.1,0.5-6.6,1.4c-1.4,1-2.1,2.4-2.1,4c0,1.1,0.5,2.1,1.3,2.9s1.9,1.3,3.2,1.8s3,1,5.1,1.4c3,0.6,5.4,1.4,7.4,2.1
				c1.9,0.8,3.5,1.9,5,3.4c1.4,1.6,2.1,3.7,2.1,6.2c0,2.2-0.6,4.3-1.8,6.1c-1.3,1.8-3,3.2-5.4,4.3s-5.4,1.6-9,1.6
				C318.8,729.5,315.8,729,312.9,728.3z"/>
			<path fill="#053272" d="M358.5,688.4h17.6c4.3,0,8.2,0.8,11.5,2.4c3.4,1.6,5.9,4,7.9,7c1.9,3,2.7,6.6,2.9,10.6
				c0.2,4-1,7.5-2.7,10.6c-1.7,3.1-4.5,5.4-7.7,7c-3.4,1.8-7.2,2.6-11.5,2.6h-17.6L358.5,688.4z M376,722.3c2.9,0,5.6-0.6,7.9-1.8
				c2.2-1.1,4-2.7,5.1-4.8c1.3-2.1,1.8-4.5,1.8-7.4c0-2.7-0.6-5.1-1.8-7.4c-1.3-2.1-2.9-3.7-5.3-4.8c-2.2-1.1-4.8-1.8-7.9-1.6H366
				l0.2,27.7L376,722.3L376,722.3z"/>
			<path fill="#053272" d="M435.1,722.3v6.2l-30.3,0.2l-0.2-40.4l29.5-0.2v6.2h-21.9V705h19.5v6.2h-19.5v11.1L435.1,722.3
				L435.1,722.3z"/>
			<path fill="#053272" d="M456.4,688h7.5l0.2,34h21.1v6.4l-28.7,0.2L456.4,688z"/>
			<path fill="#053272" d="M516.2,719H496l-4,9.3h-7.7l18.1-40.4h7.4l18.4,40.4h-7.9L516.2,719z M513.6,713l-7.7-17.6l-7.5,17.6
				H513.6z"/>
			<path fill="#053272" d="M569.1,708.3c1.9,2.1,2.9,4.6,3,7.9c0,2.4-0.6,4.5-1.8,6.4c-1.1,1.9-3,3.5-5.4,4.6
				c-2.4,1.1-5.3,1.8-8.8,1.8c-2.9,0-5.6-0.3-8.3-1.3c-2.7-0.8-5-1.9-6.9-3.4l3.2-5.8c1.4,1.3,3.2,2.2,5.3,2.9
				c2.1,0.6,4.3,1.1,6.6,1.1c2.7,0,4.8-0.6,6.2-1.6c1.4-1.1,2.2-2.6,2.2-4.5c0-1.9-0.8-3.4-2.2-4.5c-1.4-1.1-3.7-1.6-6.6-1.6h-3.7
				v-5.1l9.1-10.9h-18.3V688l27.6-0.2v5l-9.8,11.7C564.1,704.9,567,706.1,569.1,708.3z"/>
			<path fill="#053272" d="M600.8,708.1c1.9,2.1,2.9,4.6,3,7.9c0,2.4-0.6,4.5-1.8,6.4c-1.1,1.9-3,3.5-5.4,4.6
				c-2.4,1.1-5.3,1.8-8.8,1.8c-2.9,0-5.6-0.3-8.3-1.3c-2.7-0.8-5-1.9-6.9-3.4l3.2-5.8c1.4,1.3,3.2,2.2,5.3,2.9
				c2.1,0.6,4.3,1.1,6.6,1.1c2.7,0,4.8-0.6,6.2-1.6c1.4-1.1,2.2-2.6,2.2-4.5c0-1.9-0.8-3.4-2.2-4.3c-1.4-1.1-3.7-1.6-6.6-1.6h-3.7
				v-5.1l9.1-10.9h-18.3v-6.2l27.6-0.2v5l-9.8,11.7C596,704.9,598.9,706,600.8,708.1z"/>
		</g>
	</g>
	<g>
		<path fill="#053272" d="M142.1,747.6h-8.3v-2.1h19.1v2.1h-8.3v21.5H142v-21.5H142.1z"/>
		<path fill="#053272" d="M160.5,767.7c-1.9-1.1-3.4-2.4-4.5-4.3c-1.1-1.8-1.6-3.8-1.6-6.1c0-2.2,0.5-4.3,1.6-6.1s2.6-3.2,4.5-4.3
			s4-1.6,6.4-1.6s4.5,0.5,6.2,1.6c1.9,1,3.4,2.4,4.5,4.3c1.1,1.8,1.6,3.8,1.6,6.1c0,2.2-0.5,4.3-1.6,6.1s-2.6,3.2-4.5,4.3
			s-4,1.6-6.2,1.6S162.5,768.8,160.5,767.7z M171.9,765.7c1.4-0.8,2.7-2.1,3.5-3.5s1.3-3.2,1.3-5s-0.5-3.5-1.3-5
			c-0.8-1.4-2.1-2.7-3.5-3.5s-3.2-1.3-5.1-1.3c-1.9,0-3.5,0.5-5.1,1.3c-1.4,0.8-2.7,2.1-3.5,3.5s-1.3,3.2-1.3,5s0.5,3.5,1.3,5
			c0.8,1.4,2.1,2.7,3.5,3.5s3.2,1.3,5.1,1.3C168.7,767,170.5,766.7,171.9,765.7z"/>
		<path fill="#053272" d="M184.9,745.5h9.6c2.6,0,4.6,0.5,6.6,1.4c1.9,1,3.4,2.4,4.5,4.2s1.6,3.8,1.6,6.1c0,2.2-0.5,4.3-1.6,6.1
			s-2.6,3.2-4.5,4.2s-4.2,1.4-6.6,1.4h-9.6V745.5z M194.3,766.9c2.1,0,3.8-0.5,5.4-1.3c1.6-0.8,2.7-1.9,3.5-3.4c0.8-1.4,1.3-3,1.3-5
			c0-1.9-0.5-3.5-1.3-5c-0.8-1.4-2.1-2.6-3.5-3.4c-1.6-0.8-3.4-1.3-5.4-1.3h-6.9v19.2L194.3,766.9L194.3,766.9z"/>
		<path fill="#053272" d="M216.6,767.7c-1.9-1.1-3.4-2.4-4.5-4.3c-1.1-1.8-1.6-3.8-1.6-6.1c0-2.2,0.5-4.3,1.6-6.1s2.6-3.2,4.5-4.3
			s4-1.6,6.4-1.6s4.5,0.5,6.2,1.6c1.9,1,3.4,2.4,4.5,4.3c1.1,1.8,1.6,3.8,1.6,6.1c0,2.2-0.5,4.3-1.6,6.1s-2.6,3.2-4.5,4.3
			s-4,1.6-6.2,1.6S218.4,768.8,216.6,767.7z M228,765.7c1.4-0.8,2.7-2.1,3.5-3.5s1.3-3.2,1.3-5s-0.5-3.5-1.3-5s-2.1-2.7-3.5-3.5
			s-3.2-1.3-5.1-1.3c-1.9,0-3.5,0.5-5.1,1.3c-1.4,0.8-2.7,2.1-3.5,3.5s-1.3,3.2-1.3,5s0.5,3.5,1.3,5s2.1,2.7,3.5,3.5
			s3.2,1.3,5.1,1.3C224.8,767,226.4,766.7,228,765.7z"/>
		<path fill="#053272" d="M266.3,766.9v2.1h-16.7v-23.6h16.2v2.1h-13.6v8.3h12.2v2.1h-12.2v8.8h14.1V766.9z"/>
		<path fill="#053272" d="M291.9,745.5v23.6h-2.1L274.7,750v19.1h-2.6v-23.6h2.1l15.2,19.1v-19.1H291.9z"/>
		<path fill="#053272" d="M332.8,745.5v23.6h-2.4v-18.9l-9.3,15.9H320l-9.3-15.7v18.7h-2.4v-23.6h2.1l10.3,17.5l10.1-17.5H332.8z"/>
		<path fill="#053272" d="M355.2,762.7H342l-2.9,6.2h-2.6l10.7-23.6h2.4l10.7,23.6h-2.6L355.2,762.7z M354.2,760.8l-5.6-12.7
			l-5.6,12.7H354.2z"/>
		<path fill="#053272" d="M368,747.6h-8.3v-2.1h19.1v2.1h-8.3v21.5h-2.6L368,747.6L368,747.6z"/>
		<path fill="#053272" d="M399.4,766.9v2.1h-16.7v-23.6h16.2v2.1h-13.6v8.3h12.2v2.1h-12.2v8.8h14.1V766.9z"/>
		<path fill="#053272" d="M421.4,769.1l-5.4-7.5c-0.6,0-1.3,0.2-1.9,0.2h-6.2v7.5h-2.6v-23.6h8.8c3,0,5.3,0.6,7,2.1
			c1.8,1.4,2.6,3.4,2.6,5.9c0,1.8-0.5,3.4-1.4,4.6c-1,1.3-2.2,2.2-4,2.7l5.8,8L421.4,769.1L421.4,769.1z M419.3,757.9
			c1.3-1,1.9-2.4,1.9-4.3c0-1.9-0.6-3.4-1.9-4.3c-1.3-1-3-1.6-5.3-1.6h-6.2v11.9h6.2C416.2,759.5,418,759,419.3,757.9z"/>
		<path fill="#053272" d="M429.5,745.5h2.6v23.6h-2.6V745.5z"/>
		<path fill="#053272" d="M454.5,762.7h-13.1l-2.9,6.2h-2.6l10.7-23.6h2.4l10.7,23.6h-2.6L454.5,762.7z M453.6,760.8l-5.6-12.7
			l-5.6,12.7H453.6z"/>
		<path fill="#053272" d="M463.8,745.5h2.6V767h13.1v2.1h-15.7V745.5L463.8,745.5z"/>
		<path fill="#053272" d="M500.3,766.9v2.1h-16.7v-23.6h16.2v2.1h-13.6v8.3h12.2v2.1h-12.2v8.8h14.1V766.9z"/>
		<path fill="#053272" d="M507.5,768.5c-1.6-0.5-2.9-1.3-3.7-2.2l1-1.9c0.8,0.8,1.9,1.6,3.4,2.1c1.4,0.5,2.9,0.8,4.3,0.8
			c2.1,0,3.7-0.3,4.8-1.1s1.6-1.8,1.6-3c0-1-0.3-1.8-0.8-2.2c-0.6-0.5-1.3-1-2.1-1.3s-1.9-0.6-3.5-1c-1.8-0.5-3.2-0.8-4.2-1.3
			c-1.1-0.5-1.9-1.1-2.7-1.9c-0.8-0.8-1.1-2.1-1.1-3.5c0-1.1,0.3-2.2,1-3.2c0.6-1,1.6-1.8,2.9-2.4c1.3-0.6,2.9-0.8,4.8-0.8
			c1.3,0,2.7,0.2,4,0.5s2.4,0.8,3.4,1.6l-0.8,1.9c-1-0.6-2.1-1.1-3.2-1.4c-1.1-0.3-2.2-0.5-3.4-0.5c-2.1,0-3.7,0.3-4.6,1.1
			c-1.1,0.8-1.6,1.8-1.6,3c0,1,0.3,1.8,0.8,2.2c0.6,0.6,1.3,1,2.1,1.3c0.8,0.3,2.1,0.6,3.5,1c1.8,0.5,3,0.8,4.2,1.3
			c1.1,0.5,1.9,1.1,2.7,1.9c0.8,0.8,1.1,1.9,1.1,3.4c0,1.1-0.3,2.2-1,3.2c-0.6,1-1.6,1.8-2.9,2.2c-1.3,0.6-2.9,0.8-4.8,0.8
			C510.9,769.3,509.1,768.9,507.5,768.5z"/>
	</g>
	<g>
		<polygon fill="#053272" points="459.6,505.8 459.6,453 387.2,453 387.2,475 319.6,446.4 143.4,520.9 143.4,668.3 167.3,668.3 
			167.3,536.8 319.6,472.4 411.1,511 411.1,476.9 435.8,476.9 435.8,521.4 472,536.8 472,668.3 495.8,668.3 495.8,520.9 		"/>
		<path fill="#053272" d="M440.9,560.8l-19.1,15.4c-2.6-0.2-4.2-0.3-6.7-0.5l-5.9-6.6c0.2-2.7,0.2-4.2,0.3-6.9l21.5-19.1
			c0,0-40.5-17.9-48.7,24.8l-4.2,22.1l-48.4,70.8V568l0,0v-8.2l0,0v-1.9c0.2-3,5.3-5.6,11.5-5.6c3,0,10.7,2.2,11.2,5.1v10.4
			l23.6-0.2l-0.3-52.1l0,0l0,0h-10.4l0,0h-13.1v10.7c-0.3,2.9-8.2,5.1-11.1,5.1c-5.9,0-11.4-2.4-11.5-5.6v-10.1l-23.1,0.3
			c-27.1,0.6-49,22.6-48.9,49.8h10.3c0-30.8,34.1-27.6,34.1-16V560v8.5v86.7l-14.9-24.5l3-1.8l-7-11.9l-16.8,10.1l-41-68.2
			l-0.8-15.2l-18.7-7.2l-7.2,4.3l-1.8,20.3l12.7,7.4l41.2,68.2l-16.8,10.1l7,11.9l3-1.8l6.9,11.5h59.4l0,0h14.6l0,0h35.7l0,0
			l38.6-63.3l36.7-5.9l-6.2-8C429.5,591.3,447.9,574.3,440.9,560.8z"/>
	</g>
	<line fill="none" stroke="#053272" stroke-width="4" stroke-miterlimit="10" x1="104.6" y1="668.3" x2="534.5" y2="668.3"/>
	<line fill="none" stroke="#053272" stroke-width="4" stroke-miterlimit="10" x1="105.4" y1="789" x2="535.3" y2="789"/>
	<g>
		<g>
			<g>
				<path fill="#053272" d="M3.5,591.1h7.9c2.1,0,3.8,0.5,5.4,1.3s2.7,1.9,3.7,3.4c0.8,1.4,1.3,3,1.3,5c0,1.9-0.5,3.5-1.3,5
					c-0.8,1.4-2.1,2.6-3.7,3.4s-3.4,1.3-5.4,1.3H3.5V591.1z M11.2,608.6c1.8,0,3.2-0.3,4.5-1s2.2-1.6,2.9-2.7
					c0.6-1.1,1.1-2.6,1.1-4.2c0-1.6-0.3-2.9-1.1-4.2c-0.6-1.1-1.6-2.1-2.9-2.7c-1.3-0.6-2.9-1-4.5-1H5.4v15.7h5.8V608.6z"/>
				<path fill="#053272" d="M45.3,608.6v1.8H31.7v-19.3h13.1v1.8H33.6v6.9h9.9v1.8h-9.9v7.2h11.7V608.6z"/>
				<path fill="#053272" d="M56.9,609.9c-1.3-0.5-2.4-1.1-3-1.8l0.8-1.6c0.6,0.6,1.6,1.3,2.7,1.8c1.1,0.5,2.4,0.6,3.5,0.6
					c1.8,0,3-0.3,3.8-1c0.8-0.6,1.3-1.4,1.3-2.4c0-0.8-0.2-1.4-0.6-1.9s-1-0.8-1.8-1.1c-0.6-0.3-1.6-0.5-2.9-0.8
					c-1.4-0.3-2.6-0.6-3.5-1.1c-1-0.5-1.6-0.8-2.2-1.6c-0.6-0.6-1-1.6-1-2.9c0-1,0.3-1.9,0.8-2.7c0.5-0.8,1.3-1.4,2.4-1.9
					s2.4-0.6,4-0.6c1.1,0,2.2,0.2,3.2,0.5c1.1,0.3,1.9,0.6,2.7,1.3l-0.6,1.6c-0.8-0.5-1.6-1-2.6-1.1c-1-0.3-1.8-0.3-2.7-0.3
					c-1.8,0-2.9,0.3-3.8,1c-0.8,0.6-1.3,1.4-1.3,2.6c0,0.8,0.2,1.4,0.6,1.9s1.1,0.8,1.8,1.1c0.6,0.3,1.6,0.5,2.9,0.8
					c1.4,0.3,2.6,0.6,3.4,1c0.8,0.3,1.6,0.8,2.2,1.6s1,1.6,1,2.7c0,1-0.3,1.9-0.8,2.7c-0.5,0.8-1.3,1.4-2.4,1.9s-2.4,0.6-4,0.6
					C59.4,610.5,58.2,610.3,56.9,609.9z"/>
				<path fill="#053272" d="M78,591.1h7.9c2.1,0,3.8,0.5,5.4,1.3s2.7,1.9,3.7,3.4c0.8,1.4,1.3,3,1.3,5c0,1.9-0.5,3.5-1.3,5
					c-0.8,1.4-2.1,2.6-3.7,3.4s-3.4,1.3-5.4,1.3H78V591.1z M85.7,608.6c1.8,0,3.2-0.3,4.5-1c1.3-0.6,2.2-1.6,2.9-2.7
					c0.6-1.1,1.1-2.6,1.1-4.2c0-1.6-0.3-2.9-1.1-4.2c-0.6-1.1-1.6-2.1-2.9-2.7c-1.3-0.6-2.7-1-4.5-1h-5.6v15.7L85.7,608.6
					L85.7,608.6z"/>
				<path fill="#053272" d="M119.8,608.6v1.8h-13.6v-19.3h13.1v1.8h-11.2v6.9h9.9v1.8h-9.9v7.2h11.7V608.6z"/>
			</g>
		</g>
		<g>
			<path fill="#053272" d="M522.9,591.1v19.2H521v-17.5h-4.5v-1.7H522.9z"/>
			<path fill="#053272" d="M544.9,593.4c1.3,1.6,2.1,4,2.1,7c0,2.1-0.3,4-1.1,5.4c-0.8,1.4-1.8,2.6-3,3.4c-1.3,0.8-2.9,1.1-4.6,1.1
				c-1.9,0-3.4-0.3-4.6-1.1l0.8-1.6c1,0.6,2.2,1,3.7,1c2.1,0,3.8-0.6,5-2.1c1.3-1.3,1.8-3.4,1.8-5.9c0-0.5,0-1-0.2-1.6
				c-0.5,1.1-1.3,1.9-2.2,2.4c-1.1,0.6-2.2,0.8-3.7,0.8c-1.3,0-2.4-0.2-3.4-0.6c-1-0.5-1.8-1.1-2.2-2.1c-0.5-1-0.8-1.9-0.8-3
				c0-1.1,0.3-2.2,0.8-3c0.6-1,1.3-1.6,2.4-2.1c1-0.5,2.1-0.8,3.4-0.8C541.5,590.9,543.6,591.8,544.9,593.4z M541.8,600.4
				c0.8-0.3,1.3-0.8,1.8-1.4c0.5-0.6,0.6-1.3,0.6-2.1c0-0.8-0.2-1.4-0.6-2.1c-0.5-0.6-1-1.1-1.8-1.4s-1.8-0.6-2.7-0.6
				c-1.4,0-2.6,0.3-3.4,1.1c-0.8,0.8-1.3,1.8-1.3,3s0.5,2.2,1.3,3s2.1,1.1,3.5,1.1C540.2,600.9,541,600.8,541.8,600.4z"/>
			<path fill="#053272" d="M567.1,593.4c1.3,1.6,2.1,4,2.1,7c0,2.1-0.3,4-1.1,5.4c-0.8,1.4-1.8,2.6-3,3.4c-1.3,0.8-2.9,1.1-4.6,1.1
				c-1.9,0-3.4-0.3-4.6-1.1l0.8-1.6c1,0.6,2.2,1,3.7,1c2.1,0,3.8-0.6,5-2.1c1.3-1.3,1.8-3.4,1.8-5.9c0-0.5,0-1-0.2-1.6
				c-0.5,1.1-1.3,1.9-2.2,2.4c-1.1,0.6-2.2,0.8-3.7,0.8c-1.3,0-2.4-0.2-3.4-0.6c-1-0.5-1.8-1.1-2.2-2.1c-0.5-1-0.8-1.9-0.8-3
				c0-1.1,0.3-2.2,0.8-3c0.6-1,1.3-1.6,2.4-2.1c1-0.5,2.1-0.8,3.4-0.8C563.8,590.9,565.9,591.8,567.1,593.4z M564.1,600.4
				c0.8-0.3,1.3-0.8,1.8-1.4c0.5-0.6,0.6-1.3,0.6-2.1c0-0.8-0.2-1.4-0.6-2.1c-0.5-0.6-1-1.1-1.8-1.4s-1.8-0.6-2.7-0.6
				c-1.4,0-2.6,0.3-3.4,1.1c-0.8,0.8-1.3,1.8-1.3,3s0.5,2.2,1.3,3s2.1,1.1,3.5,1.1C562.5,600.9,563.3,600.8,564.1,600.4z"/>
			<path fill="#053272" d="M581.2,609.4c-1.1-0.8-2.1-1.9-2.7-3.4c-0.6-1.4-1-3.2-1-5.3c0-1.9,0.3-3.7,1-5.3
				c0.6-1.6,1.6-2.6,2.7-3.4c1.1-0.8,2.6-1.1,4-1.1s2.9,0.3,4,1.1s2.1,1.9,2.7,3.4c0.6,1.4,1,3.2,1,5.3c0,1.9-0.3,3.7-1,5.3
				c-0.6,1.4-1.6,2.6-2.7,3.4c-1.1,0.8-2.6,1.1-4,1.1S582.4,610,581.2,609.4z M588.1,607.8c0.8-0.6,1.4-1.6,1.9-2.7
				c0.5-1.1,0.6-2.6,0.6-4.3c0-1.7-0.2-3.2-0.6-4.3c-0.5-1.1-1.1-2.1-1.9-2.7c-0.8-0.6-1.8-1-2.9-1s-2.1,0.3-2.9,1s-1.4,1.6-1.9,2.7
				c-0.5,1.1-0.6,2.6-0.6,4.3c0,1.7,0.2,3.2,0.6,4.3s1.1,2.1,1.9,2.7c0.8,0.6,1.8,1,2.9,1C586.4,608.8,587.3,608.4,588.1,607.8z"/>
		</g>
	</g>
</g>
</svg>
