<?xml version="1.0" encoding="utf-8"?>
<!-- Generator: Adobe Illustrator 18.1.1, SVG Export Plug-In . SVG Version: 6.00 Build 0)  -->
<svg version="1.1" id="OBJECTS" xmlns="http://www.w3.org/2000/svg" xmlns:xlink="http://www.w3.org/1999/xlink" x="0px" y="0px"
	 viewBox="0 0 382 241" enable-background="new 0 0 382 241" xml:space="preserve">
<g>
	<g>
		<g>
			<path fill="#053272" d="M21,166.3l4.7,0l0.1,25.2l-4.7,0L21,166.3z"/>
			<path fill="#053272" d="M36.5,190.1c-2.1-1.1-3.7-2.6-4.8-4.6c-1.2-2-1.8-4.2-1.8-6.7c0-2.5,0.6-4.7,1.7-6.7
				c1.2-2,2.8-3.5,4.8-4.6s4.3-1.7,6.9-1.7c2.1,0,3.9,0.3,5.7,1.1c1.7,0.7,3.1,1.8,4.3,3.1l-3,2.9c-1.8-2-4.1-2.9-6.7-2.9
				c-1.7,0-3.3,0.4-4.6,1.1c-1.4,0.8-2.4,1.8-3.2,3.2c-0.8,1.3-1.1,2.9-1.1,4.6c0,1.7,0.4,3.2,1.2,4.6c0.8,1.3,1.8,2.4,3.2,3.1
				c1.4,0.8,2.9,1.1,4.6,1.1c2.7,0,4.9-1,6.7-3l3,2.9c-1.2,1.4-2.6,2.4-4.3,3.1c-1.7,0.7-3.6,1.1-5.7,1.1
				C40.8,191.8,38.5,191.3,36.5,190.1z"/>
			<path fill="#053272" d="M61.3,190.1c-2.1-1.1-3.7-2.7-4.9-4.6c-1.2-2-1.8-4.2-1.8-6.6c0-2.4,0.6-4.7,1.7-6.6
				c1.2-2,2.8-3.5,4.8-4.7c2.1-1.1,4.4-1.7,6.9-1.7c2.6,0,4.9,0.5,7,1.7c2.1,1.1,3.7,2.6,4.9,4.6c1.2,2,1.8,4.2,1.8,6.7
				c0,2.5-0.6,4.7-1.7,6.7c-1.2,2-2.8,3.5-4.8,4.6c-2.1,1.1-4.4,1.7-6.9,1.7C65.6,191.7,63.3,191.2,61.3,190.1z M72.7,186.5
				c1.3-0.8,2.4-1.8,3.2-3.2c0.8-1.4,1.1-2.9,1.1-4.6s-0.4-3.2-1.2-4.6c-0.8-1.4-1.8-2.4-3.2-3.2c-1.3-0.8-2.9-1.1-4.5-1.1
				c-1.7,0-3.2,0.4-4.5,1.1c-1.3,0.8-2.4,1.8-3.2,3.2c-0.8,1.4-1.1,2.9-1.1,4.6s0.4,3.2,1.2,4.5c0.8,1.4,1.8,2.4,3.2,3.2
				c1.3,0.8,2.9,1.1,4.5,1.1C69.9,187.6,71.4,187.2,72.7,186.5z"/>
			<path fill="#053272" d="M85.8,166.1l4.7,0l0.1,21.2l13.2,0l0,4l-17.9,0.1L85.8,166.1z"/>
			<path fill="#053272" d="M122.5,167.1c1.6,0.7,2.9,1.7,3.7,3.1c0.9,1.3,1.3,2.9,1.3,4.8c0,1.8-0.4,3.4-1.3,4.8
				c-0.9,1.4-2.1,2.4-3.7,3.1c-1.6,0.7-3.5,1.1-5.7,1.1l-5.7,0l0,7.3l-4.7,0l-0.1-25.2l10.4,0C119,166,120.9,166.3,122.5,167.1z
				 M121.3,178.7c1.1-0.9,1.6-2.1,1.6-3.7c0-1.6-0.5-2.8-1.6-3.7c-1.1-0.9-2.6-1.3-4.6-1.3l-5.5,0l0,10l5.5,0
				C118.7,180,120.2,179.5,121.3,178.7z"/>
			<path fill="#053272" d="M131.3,165.9l4.7,0l0.1,25.2l-4.7,0L131.3,165.9z"/>
			<path fill="#053272" d="M144.1,190.6c-1.8-0.5-3.3-1.3-4.3-2.2l1.6-3.6c1,0.8,2.3,1.5,3.8,2c1.5,0.5,3,0.8,4.5,0.8
				c1.9,0,3.3-0.3,4.2-0.9c0.9-0.6,1.4-1.4,1.4-2.4c0-0.7-0.3-1.3-0.8-1.8c-0.5-0.5-1.2-0.8-2-1.1c-0.8-0.3-1.9-0.6-3.2-0.9
				c-1.9-0.4-3.5-0.9-4.7-1.4c-1.2-0.5-2.2-1.2-3.1-2.1c-0.9-1-1.3-2.3-1.3-3.9c0-1.4,0.4-2.7,1.1-3.8c0.8-1.1,1.9-2.1,3.4-2.7
				s3.4-1,5.6-1c1.5,0,3,0.2,4.5,0.6c1.5,0.4,2.8,0.9,3.9,1.6l-1.5,3.6c-1.1-0.6-2.3-1.1-3.5-1.5c-1.2-0.3-2.4-0.5-3.5-0.5
				c-1.8,0-3.2,0.3-4.1,0.9c-0.9,0.6-1.3,1.5-1.3,2.5c0,0.7,0.3,1.3,0.8,1.8c0.5,0.5,1.2,0.8,2,1.1c0.8,0.3,1.9,0.6,3.2,0.9
				c1.9,0.4,3.4,0.9,4.6,1.3c1.2,0.5,2.2,1.2,3.1,2.1c0.9,1,1.3,2.3,1.3,3.9c0,1.4-0.4,2.7-1.1,3.8c-0.8,1.1-1.9,2-3.4,2.7
				c-1.5,0.7-3.4,1-5.6,1C147.8,191.5,146,191.2,144.1,190.6z"/>
			<path fill="#053272" d="M168.5,189.7c-2.1-1.1-3.7-2.7-4.9-4.6c-1.2-2-1.8-4.2-1.8-6.6c0-2.4,0.6-4.7,1.7-6.6
				c1.2-2,2.8-3.5,4.8-4.7c2.1-1.1,4.4-1.7,6.9-1.7c2.6,0,4.9,0.5,7,1.7c2.1,1.1,3.7,2.6,4.9,4.6c1.2,2,1.8,4.2,1.8,6.7
				c0,2.5-0.6,4.7-1.7,6.7c-1.2,2-2.8,3.5-4.8,4.6c-2.1,1.1-4.4,1.7-6.9,1.7C172.9,191.4,170.6,190.8,168.5,189.7z M180,186.1
				c1.3-0.8,2.4-1.8,3.2-3.2c0.8-1.4,1.1-2.9,1.1-4.6s-0.4-3.2-1.2-4.6c-0.8-1.4-1.8-2.4-3.2-3.2c-1.3-0.8-2.9-1.1-4.5-1.1
				c-1.7,0-3.2,0.4-4.5,1.1c-1.3,0.8-2.4,1.8-3.2,3.2c-0.8,1.4-1.1,2.9-1.1,4.6s0.4,3.2,1.2,4.6c0.8,1.4,1.8,2.4,3.2,3.2
				c1.3,0.8,2.9,1.1,4.5,1.1C177.2,187.3,178.7,186.9,180,186.1z"/>
			<path fill="#053272" d="M195.3,190.5c-1.8-0.5-3.3-1.3-4.3-2.2l1.6-3.6c1,0.8,2.3,1.5,3.8,2c1.5,0.5,3,0.8,4.5,0.8
				c1.9,0,3.3-0.3,4.2-0.9c0.9-0.6,1.4-1.4,1.4-2.4c0-0.7-0.3-1.3-0.8-1.8c-0.5-0.5-1.2-0.8-2-1.1c-0.8-0.3-1.9-0.6-3.2-0.9
				c-1.9-0.5-3.5-0.9-4.7-1.4c-1.2-0.5-2.2-1.2-3.1-2.1c-0.9-1-1.3-2.3-1.3-3.9c0-1.4,0.4-2.7,1.1-3.8c0.8-1.1,1.9-2.1,3.4-2.7
				s3.4-1,5.6-1c1.5,0,3,0.2,4.5,0.6c1.5,0.4,2.8,0.9,3.9,1.6l-1.5,3.6c-1.1-0.6-2.3-1.1-3.5-1.5c-1.2-0.3-2.4-0.5-3.5-0.5
				c-1.8,0-3.2,0.3-4.1,0.9c-0.9,0.6-1.3,1.5-1.3,2.5c0,0.7,0.3,1.3,0.8,1.8c0.5,0.5,1.2,0.8,2,1.1c0.8,0.3,1.9,0.6,3.2,0.9
				c1.9,0.4,3.4,0.9,4.6,1.3c1.2,0.5,2.2,1.2,3.1,2.1c0.9,1,1.3,2.3,1.3,3.9c0,1.4-0.4,2.7-1.1,3.8c-0.8,1.1-1.9,2-3.4,2.7
				c-1.5,0.7-3.4,1-5.6,1C199,191.3,197.1,191,195.3,190.5z"/>
			<path fill="#053272" d="M223.8,165.6l11,0c2.7,0,5.1,0.5,7.2,1.5c2.1,1,3.7,2.5,4.9,4.4c1.2,1.9,1.7,4.1,1.8,6.6
				s-0.6,4.7-1.7,6.6c-1.1,1.9-2.8,3.4-4.8,4.4c-2.1,1.1-4.5,1.6-7.2,1.6l-11,0L223.8,165.6z M234.7,186.8c1.8,0,3.5-0.4,4.9-1.1
				c1.4-0.7,2.5-1.7,3.2-3c0.8-1.3,1.1-2.8,1.1-4.6c0-1.7-0.4-3.2-1.1-4.6c-0.8-1.3-1.8-2.3-3.3-3c-1.4-0.7-3-1.1-4.9-1l-6.1,0
				l0.1,17.3L234.7,186.8z"/>
			<path fill="#053272" d="M271.6,186.8l0,3.9l-18.9,0.1l-0.1-25.2l18.4-0.1l0,3.9l-13.7,0l0,6.6l12.2,0l0,3.9l-12.2,0l0,6.9
				L271.6,186.8z"/>
			<path fill="#053272" d="M284.9,165.4l4.7,0l0.1,21.2l13.2,0l0,4l-17.9,0.1L284.9,165.4z"/>
			<path fill="#053272" d="M322.2,184.7l-12.6,0l-2.5,5.8l-4.8,0l11.3-25.2l4.6,0l11.5,25.2l-4.9,0L322.2,184.7z M320.6,181l-4.8-11
				l-4.7,11L320.6,181z"/>
			<path fill="#053272" d="M355.2,178c1.2,1.3,1.8,2.9,1.9,4.9c0,1.5-0.4,2.8-1.1,4c-0.7,1.2-1.9,2.2-3.4,2.9
				c-1.5,0.7-3.3,1.1-5.5,1.1c-1.8,0-3.5-0.2-5.2-0.8c-1.7-0.5-3.1-1.2-4.3-2.1l2-3.6c0.9,0.8,2,1.4,3.3,1.8
				c1.3,0.4,2.7,0.7,4.1,0.7c1.7,0,3-0.4,3.9-1c0.9-0.7,1.4-1.6,1.4-2.8c0-1.2-0.5-2.1-1.4-2.8c-0.9-0.7-2.3-1-4.1-1l-2.3,0l0-3.2
				l5.7-6.8l-11.4,0l0-3.9l17.2-0.1l0,3.1l-6.1,7.3C352.1,175.9,353.9,176.7,355.2,178z"/>
			<path fill="#053272" d="M375,177.9c1.2,1.3,1.8,2.9,1.9,4.9c0,1.5-0.4,2.8-1.1,4c-0.7,1.2-1.9,2.2-3.4,2.9
				c-1.5,0.7-3.3,1.1-5.5,1.1c-1.8,0-3.5-0.2-5.2-0.8c-1.7-0.5-3.1-1.2-4.3-2.1l2-3.6c0.9,0.8,2,1.4,3.3,1.8
				c1.3,0.4,2.7,0.7,4.1,0.7c1.7,0,3-0.4,3.9-1c0.9-0.7,1.4-1.6,1.4-2.8c0-1.2-0.5-2.1-1.4-2.7c-0.9-0.7-2.3-1-4.1-1l-2.3,0l0-3.2
				l5.7-6.8l-11.4,0l0-3.9l17.2-0.1l0,3.1l-6.1,7.3C372,175.9,373.8,176.6,375,177.9z"/>
		</g>
	</g>
	<g>
		<path fill="#053272" d="M88.7,202.6h-5.2v-1.3h11.9v1.3h-5.2V216h-1.6V202.6z"/>
		<path fill="#053272" d="M100.2,215.1c-1.2-0.7-2.1-1.5-2.8-2.7c-0.7-1.1-1-2.4-1-3.8s0.3-2.7,1-3.8s1.6-2,2.8-2.7s2.5-1,4-1
			s2.8,0.3,3.9,1c1.2,0.6,2.1,1.5,2.8,2.7c0.7,1.1,1,2.4,1,3.8s-0.3,2.7-1,3.8c-0.7,1.1-1.6,2-2.8,2.7s-2.5,1-3.9,1
			S101.4,215.8,100.2,215.1z M107.3,213.9c0.9-0.5,1.7-1.3,2.2-2.2c0.5-0.9,0.8-2,0.8-3.1c0-1.1-0.3-2.2-0.8-3.1
			c-0.5-0.9-1.3-1.7-2.2-2.2c-0.9-0.5-2-0.8-3.2-0.8s-2.2,0.3-3.2,0.8c-0.9,0.5-1.7,1.3-2.2,2.2c-0.5,0.9-0.8,2-0.8,3.1
			c0,1.1,0.3,2.2,0.8,3.1c0.5,0.9,1.3,1.7,2.2,2.2c0.9,0.5,2,0.8,3.2,0.8S106.4,214.5,107.3,213.9z"/>
		<path fill="#053272" d="M115.4,201.3h6c1.6,0,2.9,0.3,4.1,0.9c1.2,0.6,2.1,1.5,2.8,2.6c0.7,1.1,1,2.4,1,3.8c0,1.4-0.3,2.7-1,3.8
			c-0.7,1.1-1.6,2-2.8,2.6c-1.2,0.6-2.6,0.9-4.1,0.9h-6V201.3z M121.3,214.6c1.3,0,2.4-0.3,3.4-0.8c1-0.5,1.7-1.2,2.2-2.1
			s0.8-1.9,0.8-3.1c0-1.2-0.3-2.2-0.8-3.1c-0.5-0.9-1.3-1.6-2.2-2.1c-1-0.5-2.1-0.8-3.4-0.8h-4.3v12H121.3z"/>
		<path fill="#053272" d="M135.2,215.1c-1.2-0.7-2.1-1.5-2.8-2.7c-0.7-1.1-1-2.4-1-3.8s0.3-2.7,1-3.8s1.6-2,2.8-2.7s2.5-1,4-1
			s2.8,0.3,3.9,1c1.2,0.6,2.1,1.5,2.8,2.7c0.7,1.1,1,2.4,1,3.8s-0.3,2.7-1,3.8c-0.7,1.1-1.6,2-2.8,2.7s-2.5,1-3.9,1
			S136.3,215.8,135.2,215.1z M142.3,213.9c0.9-0.5,1.7-1.3,2.2-2.2c0.5-0.9,0.8-2,0.8-3.1c0-1.1-0.3-2.2-0.8-3.1
			c-0.5-0.9-1.3-1.7-2.2-2.2c-0.9-0.5-2-0.8-3.2-0.8s-2.2,0.3-3.2,0.8c-0.9,0.5-1.7,1.3-2.2,2.2c-0.5,0.9-0.8,2-0.8,3.1
			c0,1.1,0.3,2.2,0.8,3.1c0.5,0.9,1.3,1.7,2.2,2.2c0.9,0.5,2,0.8,3.2,0.8S141.3,214.5,142.3,213.9z"/>
		<path fill="#053272" d="M166.2,214.6v1.3h-10.4v-14.7h10.1v1.3h-8.5v5.2h7.6v1.3h-7.6v5.5H166.2z"/>
		<path fill="#053272" d="M182.2,201.3V216h-1.3l-9.4-11.9V216h-1.6v-14.7h1.3l9.5,11.9v-11.9H182.2z"/>
		<path fill="#053272" d="M207.7,201.3V216h-1.5v-11.8l-5.8,9.9h-0.7l-5.8-9.8V216h-1.5v-14.7h1.3l6.4,10.9l6.3-10.9H207.7z"/>
		<path fill="#053272" d="M221.7,212h-8.2l-1.8,3.9h-1.6l6.7-14.7h1.5l6.7,14.7h-1.6L221.7,212z M221.1,210.8l-3.5-7.9l-3.5,7.9
			H221.1z"/>
		<path fill="#053272" d="M229.7,202.6h-5.2v-1.3h11.9v1.3h-5.2V216h-1.6V202.6z"/>
		<path fill="#053272" d="M249.3,214.6v1.3h-10.4v-14.7H249v1.3h-8.5v5.2h7.6v1.3h-7.6v5.5H249.3z"/>
		<path fill="#053272" d="M263,216l-3.4-4.7c-0.4,0-0.8,0.1-1.2,0.1h-3.9v4.7h-1.6v-14.7h5.5c1.9,0,3.3,0.4,4.4,1.3
			c1.1,0.9,1.6,2.1,1.6,3.7c0,1.1-0.3,2.1-0.9,2.9c-0.6,0.8-1.4,1.4-2.5,1.7l3.6,5H263z M261.7,209c0.8-0.6,1.2-1.5,1.2-2.7
			c0-1.2-0.4-2.1-1.2-2.7c-0.8-0.6-1.9-1-3.3-1h-3.9v7.4h3.9C259.8,210,260.9,209.7,261.7,209z"/>
		<path fill="#053272" d="M268.1,201.3h1.6V216h-1.6V201.3z"/>
		<path fill="#053272" d="M283.7,212h-8.2l-1.8,3.9h-1.6l6.7-14.7h1.5l6.7,14.7h-1.6L283.7,212z M283.1,210.8l-3.5-7.9l-3.5,7.9
			H283.1z"/>
		<path fill="#053272" d="M289.5,201.3h1.6v13.4h8.2v1.3h-9.8V201.3z"/>
		<path fill="#053272" d="M312.3,214.6v1.3h-10.4v-14.7h10.1v1.3h-8.5v5.2h7.6v1.3h-7.6v5.5H312.3z"/>
		<path fill="#053272" d="M316.8,215.6c-1-0.3-1.8-0.8-2.3-1.4l0.6-1.2c0.5,0.5,1.2,1,2.1,1.3s1.8,0.5,2.7,0.5c1.3,0,2.3-0.2,3-0.7
			c0.7-0.5,1-1.1,1-1.9c0-0.6-0.2-1.1-0.5-1.4c-0.4-0.3-0.8-0.6-1.3-0.8c-0.5-0.2-1.2-0.4-2.2-0.6c-1.1-0.3-2-0.5-2.6-0.8
			c-0.7-0.3-1.2-0.7-1.7-1.2c-0.5-0.5-0.7-1.3-0.7-2.2c0-0.7,0.2-1.4,0.6-2c0.4-0.6,1-1.1,1.8-1.5c0.8-0.4,1.8-0.5,3-0.5
			c0.8,0,1.7,0.1,2.5,0.3c0.8,0.2,1.5,0.5,2.1,1l-0.5,1.2c-0.6-0.4-1.3-0.7-2-0.9c-0.7-0.2-1.4-0.3-2.1-0.3c-1.3,0-2.3,0.2-2.9,0.7
			c-0.7,0.5-1,1.1-1,1.9c0,0.6,0.2,1.1,0.5,1.4c0.4,0.4,0.8,0.6,1.3,0.8c0.5,0.2,1.3,0.4,2.2,0.6c1.1,0.3,1.9,0.5,2.6,0.8
			c0.7,0.3,1.2,0.7,1.7,1.2c0.5,0.5,0.7,1.2,0.7,2.1c0,0.7-0.2,1.4-0.6,2c-0.4,0.6-1,1.1-1.8,1.4c-0.8,0.4-1.8,0.5-3,0.5
			C318.9,216.1,317.8,215.9,316.8,215.6z"/>
	</g>
	<g>
		<polygon fill="#053272" points="286.9,51.6 286.9,18.7 241.7,18.7 241.7,32.4 199.5,14.6 89.5,61.1 89.5,153.1 104.4,153.1 
			104.4,71 199.5,30.8 256.6,54.9 256.6,33.6 272,33.6 272,61.4 294.6,71 294.6,153.1 309.5,153.1 309.5,61.1 		"/>
		<path fill="#053272" d="M275.2,86l-11.9,9.6c-1.6-0.1-2.6-0.2-4.2-0.3l-3.7-4.1c0.1-1.7,0.1-2.6,0.2-4.3L269,75
			c0,0-25.3-11.2-30.4,15.5l-2.6,13.8l-30.2,44.2v-58l0,0l0-5.1v0l0-1.2c0.1-1.9,3.3-3.5,7.2-3.5c1.9,0,6.7,1.4,7,3.2l0,6.5
			l14.7-0.1l-0.2-32.5l0,0l0,0l-6.5,0l0,0l-8.2,0l0,6.5c-0.2,1.8-5.1,3.2-6.9,3.2c-3.7,0-7.1-1.5-7.2-3.5l0-6.3l-14.4,0.2
			C174.4,58.3,160.7,72,160.8,89l6.4,0c0-19.2,21.3-17.2,21.3-10v6.5v5.3v54.1l-9.3-15.3l1.9-1.1l-4.4-7.4l-10.5,6.3l-25.6-42.6
			l-0.5-9.5l-11.7-4.5l-4.5,2.7l-1.1,12.7l7.9,4.6l25.7,42.6l-10.5,6.3l4.4,7.4l1.9-1.1l4.3,7.2h37.1v0h9.1l0,0H225l0,0l24.1-39.5
			L272,110l-3.9-5C268.1,105,279.6,94.4,275.2,86z"/>
	</g>
	<line fill="none" stroke="#053272" stroke-width="4" stroke-miterlimit="10" x1="65.3" y1="153.1" x2="333.6" y2="153.1"/>
	<line fill="none" stroke="#053272" stroke-width="4" stroke-miterlimit="10" x1="65.8" y1="228.4" x2="334.1" y2="228.4"/>
	<g>
		<g>
			<g>
				<path fill="#053272" d="M2.2,104.9h4.9c1.3,0,2.4,0.3,3.4,0.8c1,0.5,1.7,1.2,2.3,2.1c0.5,0.9,0.8,1.9,0.8,3.1s-0.3,2.2-0.8,3.1
					c-0.5,0.9-1.3,1.6-2.3,2.1c-1,0.5-2.1,0.8-3.4,0.8H2.2V104.9z M7,115.8c1.1,0,2-0.2,2.8-0.6s1.4-1,1.8-1.7
					c0.4-0.7,0.7-1.6,0.7-2.6c0-1-0.2-1.8-0.7-2.6c-0.4-0.7-1-1.3-1.8-1.7S8,106,7,106H3.4v9.8H7z"/>
				<path fill="#053272" d="M28.3,115.8v1.1h-8.5v-12H28v1.1h-7v4.3h6.2v1.1h-6.2v4.5H28.3z"/>
				<path fill="#053272" d="M35.5,116.6c-0.8-0.3-1.5-0.7-1.9-1.1l0.5-1c0.4,0.4,1,0.8,1.7,1.1c0.7,0.3,1.5,0.4,2.2,0.4
					c1.1,0,1.9-0.2,2.4-0.6c0.5-0.4,0.8-0.9,0.8-1.5c0-0.5-0.1-0.9-0.4-1.2c-0.3-0.3-0.6-0.5-1.1-0.7c-0.4-0.2-1-0.3-1.8-0.5
					c-0.9-0.2-1.6-0.4-2.2-0.7s-1-0.5-1.4-1c-0.4-0.4-0.6-1-0.6-1.8c0-0.6,0.2-1.2,0.5-1.7c0.3-0.5,0.8-0.9,1.5-1.2
					c0.7-0.3,1.5-0.4,2.5-0.4c0.7,0,1.4,0.1,2,0.3c0.7,0.2,1.2,0.4,1.7,0.8l-0.4,1c-0.5-0.3-1-0.6-1.6-0.7c-0.6-0.2-1.1-0.2-1.7-0.2
					c-1.1,0-1.8,0.2-2.4,0.6c-0.5,0.4-0.8,0.9-0.8,1.6c0,0.5,0.1,0.9,0.4,1.2s0.7,0.5,1.1,0.7c0.4,0.2,1,0.3,1.8,0.5
					c0.9,0.2,1.6,0.4,2.1,0.6c0.5,0.2,1,0.5,1.4,1s0.6,1,0.6,1.7c0,0.6-0.2,1.2-0.5,1.7c-0.3,0.5-0.8,0.9-1.5,1.2
					c-0.7,0.3-1.5,0.4-2.5,0.4C37.1,117,36.3,116.9,35.5,116.6z"/>
				<path fill="#053272" d="M48.7,104.9h4.9c1.3,0,2.4,0.3,3.4,0.8c1,0.5,1.7,1.2,2.3,2.1c0.5,0.9,0.8,1.9,0.8,3.1s-0.3,2.2-0.8,3.1
					c-0.5,0.9-1.3,1.6-2.3,2.1c-1,0.5-2.1,0.8-3.4,0.8h-4.9V104.9z M53.5,115.8c1.1,0,2-0.2,2.8-0.6s1.4-1,1.8-1.7
					c0.4-0.7,0.7-1.6,0.7-2.6c0-1-0.2-1.8-0.7-2.6c-0.4-0.7-1-1.3-1.8-1.7s-1.7-0.6-2.8-0.6H50v9.8H53.5z"/>
				<path fill="#053272" d="M74.8,115.8v1.1h-8.5v-12h8.2v1.1h-7v4.3h6.2v1.1h-6.2v4.5H74.8z"/>
			</g>
		</g>
		<g>
			<path fill="#053272" d="M326.4,104.9v12h-1.2V106h-2.8v-1.1H326.4z"/>
			<path fill="#053272" d="M340.1,106.3c0.8,1,1.3,2.5,1.3,4.4c0,1.3-0.2,2.5-0.7,3.4c-0.5,0.9-1.1,1.6-1.9,2.1
				c-0.8,0.5-1.8,0.7-2.9,0.7c-1.2,0-2.1-0.2-2.9-0.7l0.5-1c0.6,0.4,1.4,0.6,2.3,0.6c1.3,0,2.4-0.4,3.1-1.3c0.8-0.8,1.1-2.1,1.1-3.7
				c0-0.3,0-0.6-0.1-1c-0.3,0.7-0.8,1.2-1.4,1.5c-0.7,0.4-1.4,0.5-2.3,0.5c-0.8,0-1.5-0.1-2.1-0.4c-0.6-0.3-1.1-0.7-1.4-1.3
				s-0.5-1.2-0.5-1.9c0-0.7,0.2-1.4,0.5-1.9c0.4-0.6,0.8-1,1.5-1.3c0.6-0.3,1.3-0.5,2.1-0.5C338,104.8,339.3,105.3,340.1,106.3z
				 M338.2,110.7c0.5-0.2,0.8-0.5,1.1-0.9c0.3-0.4,0.4-0.8,0.4-1.3c0-0.5-0.1-0.9-0.4-1.3s-0.6-0.7-1.1-0.9
				c-0.5-0.2-1.1-0.4-1.7-0.4c-0.9,0-1.6,0.2-2.1,0.7c-0.5,0.5-0.8,1.1-0.8,1.9s0.3,1.4,0.8,1.9c0.5,0.5,1.3,0.7,2.2,0.7
				C337.2,111,337.7,110.9,338.2,110.7z"/>
			<path fill="#053272" d="M354,106.3c0.8,1,1.3,2.5,1.3,4.4c0,1.3-0.2,2.5-0.7,3.4c-0.5,0.9-1.1,1.6-1.9,2.1
				c-0.8,0.5-1.8,0.7-2.9,0.7c-1.2,0-2.1-0.2-2.9-0.7l0.5-1c0.6,0.4,1.4,0.6,2.3,0.6c1.3,0,2.4-0.4,3.1-1.3c0.8-0.8,1.1-2.1,1.1-3.7
				c0-0.3,0-0.6-0.1-1c-0.3,0.7-0.8,1.2-1.4,1.5c-0.7,0.4-1.4,0.5-2.3,0.5c-0.8,0-1.5-0.1-2.1-0.4c-0.6-0.3-1.1-0.7-1.4-1.3
				s-0.5-1.2-0.5-1.9c0-0.7,0.2-1.4,0.5-1.9c0.4-0.6,0.8-1,1.5-1.3c0.6-0.3,1.3-0.5,2.1-0.5C351.9,104.8,353.2,105.3,354,106.3z
				 M352.1,110.7c0.5-0.2,0.8-0.5,1.1-0.9c0.3-0.4,0.4-0.8,0.4-1.3c0-0.5-0.1-0.9-0.4-1.3s-0.6-0.7-1.1-0.9
				c-0.5-0.2-1.1-0.4-1.7-0.4c-0.9,0-1.6,0.2-2.1,0.7c-0.5,0.5-0.8,1.1-0.8,1.9s0.3,1.4,0.8,1.9c0.5,0.5,1.3,0.7,2.2,0.7
				C351.1,111,351.6,110.9,352.1,110.7z"/>
			<path fill="#053272" d="M362.8,116.3c-0.7-0.5-1.3-1.2-1.7-2.1c-0.4-0.9-0.6-2-0.6-3.3c0-1.2,0.2-2.3,0.6-3.3s1-1.6,1.7-2.1
				c0.7-0.5,1.6-0.7,2.5-0.7c0.9,0,1.8,0.2,2.5,0.7c0.7,0.5,1.3,1.2,1.7,2.1s0.6,2,0.6,3.3c0,1.2-0.2,2.3-0.6,3.3
				c-0.4,0.9-1,1.6-1.7,2.1c-0.7,0.5-1.6,0.7-2.5,0.7C364.4,117,363.5,116.7,362.8,116.3z M367.1,115.3c0.5-0.4,0.9-1,1.2-1.7
				c0.3-0.7,0.4-1.6,0.4-2.7c0-1.1-0.1-2-0.4-2.7s-0.7-1.3-1.2-1.7c-0.5-0.4-1.1-0.6-1.8-0.6c-0.7,0-1.3,0.2-1.8,0.6
				c-0.5,0.4-0.9,1-1.2,1.7s-0.4,1.6-0.4,2.7c0,1.1,0.1,2,0.4,2.7c0.3,0.7,0.7,1.3,1.2,1.7c0.5,0.4,1.1,0.6,1.8,0.6
				C366,115.9,366.6,115.7,367.1,115.3z"/>
		</g>
	</g>
</g>
<g>
</g>
<g>
</g>
<g>
</g>
<g>
</g>
<g>
</g>
</svg>
