<?xml version="1.0" encoding="UTF-8"?> <svg xmlns="http://www.w3.org/2000/svg" xmlns:xlink="http://www.w3.org/1999/xlink" version="1.1" id="Layer_1" x="0px" y="0px" viewBox="0 0 600 375.9" style="enable-background:new 0 0 600 375.9;" xml:space="preserve"> <style type="text/css"> .st0{fill-rule:evenodd;clip-rule:evenodd;fill:#FFFFFF;} .st1{fill:#231F20;} .st2{fill-rule:evenodd;clip-rule:evenodd;fill:#EC1C24;} .st3{fill:none;stroke:#CC2D31;stroke-width:0.2665;stroke-miterlimit:22.9256;} .st4{fill-rule:evenodd;clip-rule:evenodd;fill:#231F20;} .st5{fill:none;stroke:#231F20;stroke-width:0.216;stroke-miterlimit:22.9256;} .st6{fill-rule:evenodd;clip-rule:evenodd;fill:#FFF100;} .st7{fill:none;stroke:#FFF100;stroke-width:0.216;stroke-miterlimit:22.9256;} .st8{fill:none;stroke:#FFFFFF;stroke-width:0.216;stroke-miterlimit:22.9256;} .st9{fill:#FFF100;} </style> <g> <path class="st0" d="M300.24,29.33c163.93,0,296.82,76.22,296.82,170.25c0,94.02-132.89,170.24-296.82,170.24 c-163.93,0-296.83-76.22-296.83-170.24C3.41,105.56,136.3,29.33,300.24,29.33z"></path> <path class="st1" d="M300,29.45c-165.69,0-300,76.41-300,170.66c0,94.25,134.32,170.66,300,170.66c165.68,0,300-76.41,300-170.66 C600,105.86,465.68,29.45,300,29.45z M300.24,367.8C136.3,367.8,3.41,292.69,3.41,200.03c0-92.66,132.89-167.78,296.83-167.78 c163.93,0,296.82,75.12,296.82,167.78C597.06,292.69,464.17,367.8,300.24,367.8z"></path> <path class="st2" d="M300,45.27c153.68,0,278.27,69.09,278.27,154.31c0,85.22-124.58,154.31-278.27,154.31 S21.73,284.8,21.73,199.58C21.73,114.36,146.32,45.27,300,45.27z"></path> <path class="st3" d="M300,45.27c153.68,0,278.26,69.09,278.26,154.31c0,85.22-124.58,154.31-278.26,154.31 c-153.69,0-278.27-69.09-278.27-154.31C21.73,114.36,146.32,45.27,300,45.27z"></path> <path class="st4" d="M500.7,134.83l11.89-13.29l-9.61-8.17l2.97-3.02l6.06,4.79l4.82-5.76c-7.89-12.36-5.19-18.54-3.24-27.49 c2.78-9.08,6.45-15.49,12.72-22.08c10.22-10.03,24.93-19.03,33.22-30.27c5.21-9.81,2.69-17.55-0.56-21.61 c-11.24-3.68-21.4,2.91-30.48,18.96l-9.57,18.64c-3.58,7.35-10.53,17.31-17.3,22.53c-5.66,4.43-12.37,8.24-26.27,6.54l-4.03,2.82 l2.17,2.18l-2.33,2.49l-3.85-3.51l-13.17,14.43L500.7,134.83z"></path> <path class="st5" d="M500.7,134.83l11.89-13.29l-9.61-8.17l2.97-3.02l6.06,4.79l4.82-5.76c-7.89-12.36-5.19-18.54-3.24-27.49 c2.78-9.08,6.45-15.49,12.72-22.08c10.22-10.03,24.93-19.03,33.22-30.27c5.21-9.81,2.69-17.55-0.56-21.61 c-11.24-3.68-21.4,2.91-30.48,18.96l-9.57,18.64c-3.58,7.35-10.53,17.31-17.3,22.53c-5.66,4.43-12.37,8.24-26.27,6.54l-4.03,2.82 l2.17,2.18l-2.33,2.49l-3.85-3.51l-13.17,14.43L500.7,134.83z"></path> <polygon class="st4" points="417.93,144.56 453.13,96.94 496.48,135.86 460.36,184.61 457.57,182.37 484.36,145.12 453.1,177.9 448.26,174.36 474.69,138.23 444.35,170.45 440.63,166.91 466.5,128.55 435.98,161.88 432.45,158.53 460.54,119.79 428.17,154.25 424.26,151.08 451.61,111.79 421.28,146.8 "></polygon> <polygon class="st5" points="417.93,144.56 453.13,96.94 496.48,135.86 460.36,184.61 457.57,182.37 484.36,145.12 453.1,177.9 448.26,174.36 474.69,138.23 444.35,170.45 440.63,166.91 466.5,128.55 435.98,161.88 432.45,158.53 460.54,119.79 428.17,154.25 424.26,151.08 451.61,111.79 421.28,146.8 "></polygon> <polygon class="st4" points="456.13,92.92 467.35,80.62 511.4,120.74 500.64,132.73 "></polygon> <polygon class="st5" points="456.13,92.92 467.35,80.62 511.4,120.74 500.64,132.73 "></polygon> <path class="st2" d="M496.44,133.6l13.2-14.88l-4.23-3.92l6.18-7.23c-7.89-12.36-5.19-18.54-3.24-27.48 c2.78-9.08,6.45-15.49,12.72-22.08C531.29,47.97,546,38.97,554.3,27.73c5.21-9.81,2.7-17.55-0.56-21.61 c-11.24-3.68-21.4,2.92-30.47,18.96l-9.58,18.64c-3.57,7.36-10.53,17.31-17.3,22.53c-5.66,4.42-12.37,8.24-26.28,6.54l-4.03,2.82 l2.17,2.18l-2.33,2.49l-3.85-3.51l-13.17,14.43L496.44,133.6z"></path> <polygon class="st6" points="412.7,142.74 449.18,93.39 492.53,132.31 455.13,182.78 452.34,180.55 479.13,143.3 447.87,176.08 443.04,172.54 469.46,136.41 439.13,168.63 435.41,165.09 461.27,126.73 430.75,160.07 427.22,156.71 455.32,117.97 422.94,152.43 419.03,149.26 446.39,109.96 416.05,144.98 "></polygon> <polygon class="st7" points="412.7,142.74 449.18,93.39 492.53,132.31 455.13,182.78 452.34,180.55 479.13,143.3 447.87,176.08 443.04,172.54 469.46,136.41 439.13,168.63 435.41,165.09 461.27,126.73 430.75,160.07 427.22,156.71 455.32,117.97 422.94,152.43 419.03,149.26 446.39,109.96 416.05,144.98 "></polygon> <polygon class="st0" points="450.9,91.1 462.12,78.8 506.17,118.92 495.41,130.91 "></polygon> <polygon class="st8" points="450.9,91.1 462.12,78.8 506.17,118.92 495.41,130.91 "></polygon> <path class="st1" d="M144.55,142.69h1.91c3.04,0,5.4-0.31,7.07-0.94c1.65-0.63,2.87-1.84,3.65-3.66c0.77-1.81,1.16-4.53,1.16-8.14 c0-3.26-0.37-5.76-1.14-7.55c-0.75-1.78-1.97-3.05-3.64-3.77c-1.65-0.74-3.95-1.11-6.89-1.11h-2.12V142.69z M144.55,174.14h-8.72 v-62.97h11.78c4.56,0,8.25,0.53,11.1,1.59c2.85,1.06,5.01,2.97,6.48,5.7c1.47,2.74,2.22,6.56,2.22,11.48 c0,4.06-0.39,7.32-1.16,9.79c-0.79,2.46-1.95,4.34-3.52,5.65c-1.55,1.31-3.5,2.19-5.79,2.66c-2.3,0.46-5.2,0.7-8.74,0.7h-3.65 V174.14z"></path> <rect x="176.49" y="114.86" class="st1" width="7.4" height="53.44"></rect> <polygon class="st1" points="222.19,170.02 202.28,129.83 202.28,168.16 194.68,168.16 194.68,117.56 201.08,113.04 220.1,152.43 220.1,114.86 227.5,114.93 227.5,168.3 "></polygon> <polygon class="st1" points="248.8,119.56 248.8,167.6 241.3,167.6 241.3,119.56 233.9,119.56 236.71,114.17 257.2,114.17 254.2,119.56 "></polygon> <path class="st1" d="M298.6,114.23V148v5.26c0,3.18-0.38,5.85-1.17,8.01c-0.77,2.17-2.42,3.93-4.95,5.28 c-2.53,1.35-6.23,2.03-11.1,2.03c-5.07,0-8.88-0.72-11.45-2.14c-2.57-1.44-4.25-3.27-5.05-5.52c-0.78-2.25-1.22-5.08-1.3-8.49 c0.15-1.14,0.22-2.72,0.22-4.71l0.2-33.48h7.6v34.02c0,3.05,0.07,5.38,0.2,6.99c0.15,1.62,0.5,3,1.08,4.18 c0.58,1.18,1.55,2.07,2.9,2.68c1.37,0.61,3.23,0.93,5.6,0.93c2.93,0,5.05-0.54,6.35-1.64c1.32-1.1,2.11-2.61,2.42-4.54 c0.28-1.94,0.43-4.89,0.43-8.86v-33.75H298.6z"></path> <path class="st1" d="M324.42,145.29l-1,0.43l10.3,21.34l-6.4,1.68l-12.9-27.95h1.7c1.95,0,3.55-0.26,4.8-0.75 c1.23-0.5,2.21-1.53,2.92-3.07c0.72-1.55,1.07-3.84,1.07-6.85c-0.08-2.76-0.43-4.89-1.07-6.41c-0.62-1.51-1.62-2.59-2.98-3.2 c-1.37-0.62-3.25-0.93-5.63-0.93h-2v48.04h-7.4v-53.44h10.02c3.88,0,7.05,0.45,9.49,1.34c2.43,0.9,4.26,2.51,5.51,4.82 c1.27,2.3,1.92,5.57,1.98,9.78c0,3.18-0.33,5.77-1.02,7.8c-0.67,2.01-1.48,3.51-2.43,4.49c-0.97,0.99-1.93,1.69-2.93,2.08 C325.45,144.88,324.77,145.15,324.42,145.29"></path> <path class="st1" d="M361.28,160.16l-26.99,0.04l2.04-5.35h23.68L361.28,160.16z M352.92,128.72l-9.6,39.87l-7.82-0.97L349.31,117 l6.72-4.51l13.99,55.12l-7.2,0.97L352.92,128.72z"></path> <path class="st1" d="M393.15,112.5l2.9,4.84l-6.98,1.94c-4.87,1.44-7.52,3.91-7.92,7.42c0.2,1.15,0.6,2.29,1.2,3.41l12.28,19.74 c1.08,1.63,1.62,3.43,1.62,5.42c0,2.74-1.23,5.21-3.7,7.41c-2.47,2.19-5.53,3.74-9.22,4.67l-6.58,1.72l-3-4.99l6.72-1.59 c2.45-0.55,4.4-1.48,5.83-2.79c1.43-1.31,2.15-2.77,2.15-4.41c0-1.27-0.33-2.47-1-3.6l-12.28-19.55c-1.01-1.74-1.62-3.56-1.81-5.42 c0.1-2.73,1.28-5.2,3.55-7.4c2.28-2.21,5.38-3.84,9.35-4.93L393.15,112.5z"></path> <path class="st9" d="M140.71,140.78h1.91c3.04,0,5.4-0.31,7.07-0.94c1.65-0.62,2.87-1.84,3.65-3.66c0.76-1.81,1.16-4.53,1.16-8.14 c0-3.26-0.37-5.76-1.14-7.55c-0.75-1.78-1.97-3.05-3.64-3.77c-1.65-0.73-3.95-1.1-6.89-1.1h-2.12V140.78z M140.71,172.22h-8.72 v-62.97h11.78c4.56,0,8.25,0.53,11.1,1.59c2.85,1.06,5.01,2.97,6.48,5.71c1.47,2.74,2.22,6.56,2.22,11.47 c0,4.06-0.39,7.32-1.16,9.79c-0.79,2.46-1.95,4.34-3.52,5.65c-1.55,1.31-3.5,2.19-5.79,2.66c-2.3,0.46-5.21,0.69-8.74,0.69h-3.65 V172.22z"></path> <rect x="172.64" y="112.94" class="st9" width="7.4" height="53.44"></rect> <polygon class="st9" points="218.35,168.1 198.43,127.92 198.43,166.24 190.83,166.24 190.83,115.65 197.23,111.13 216.25,150.51 216.25,112.94 223.65,113.01 223.65,166.38 "></polygon> <polygon class="st9" points="244.95,117.64 244.95,165.69 237.45,165.69 237.45,117.64 230.05,117.64 232.86,112.25 253.35,112.25 250.35,117.64 "></polygon> <path class="st9" d="M294.75,112.32v33.77v5.26c0,3.18-0.38,5.85-1.17,8c-0.76,2.17-2.42,3.93-4.95,5.28 c-2.53,1.35-6.24,2.03-11.1,2.03c-5.07,0-8.89-0.72-11.45-2.14c-2.57-1.43-4.25-3.27-5.05-5.52c-0.78-2.25-1.22-5.08-1.3-8.49 c0.15-1.14,0.22-2.71,0.22-4.71l0.2-33.48h7.6v34.02c0,3.05,0.06,5.38,0.2,6.99c0.15,1.62,0.5,3,1.08,4.18 c0.58,1.18,1.55,2.07,2.9,2.68c1.37,0.61,3.23,0.92,5.6,0.92c2.93,0,5.05-0.54,6.35-1.64c1.32-1.1,2.12-2.61,2.42-4.54 c0.29-1.94,0.44-4.89,0.44-8.86v-33.75H294.75z"></path> <path class="st9" d="M320.57,143.37l-1,0.43l10.3,21.34l-6.4,1.68l-12.9-27.94h1.7c1.95,0,3.55-0.26,4.8-0.75 c1.23-0.5,2.22-1.53,2.92-3.07c0.72-1.55,1.07-3.84,1.07-6.85c-0.08-2.76-0.43-4.89-1.07-6.41c-0.62-1.51-1.61-2.59-2.98-3.2 c-1.37-0.62-3.25-0.94-5.63-0.94h-2v48.04h-7.4v-53.44h10.02c3.88,0,7.05,0.45,9.48,1.34c2.43,0.9,4.27,2.51,5.52,4.82 c1.27,2.3,1.92,5.57,1.98,9.79c0,3.17-0.33,5.77-1.02,7.8c-0.67,2.01-1.48,3.51-2.43,4.49c-0.97,0.99-1.93,1.69-2.93,2.08 C321.61,142.97,320.92,143.23,320.57,143.37"></path> <path class="st9" d="M357.43,158.25l-26.99,0.04l2.04-5.35h23.68L357.43,158.25z M349.07,126.8l-9.6,39.87l-7.82-0.97l13.8-50.62 l6.72-4.51l13.99,55.12l-7.2,0.97L349.07,126.8z"></path> <path class="st9" d="M389.3,110.59l2.9,4.84l-6.98,1.94c-4.86,1.43-7.52,3.91-7.92,7.42c0.2,1.16,0.6,2.29,1.2,3.41l12.28,19.74 c1.08,1.63,1.62,3.43,1.62,5.42c0,2.74-1.24,5.21-3.7,7.4c-2.47,2.19-5.53,3.74-9.22,4.66l-6.58,1.72l-3-4.99l6.72-1.6 c2.45-0.55,4.4-1.48,5.83-2.79c1.44-1.31,2.15-2.77,2.15-4.41c0-1.27-0.33-2.47-1-3.61l-12.28-19.54 c-1.02-1.74-1.62-3.56-1.82-5.42c0.1-2.72,1.28-5.2,3.55-7.4c2.28-2.21,5.39-3.85,9.35-4.93L389.3,110.59z"></path> <path class="st4" d="M110.35,278.23c-0.59-25.5,0.27-52.39,1.27-78.68c-5.04,0.76-10.09,1.44-15.13,1.91 c-1.37,0.11-1.64,0.44-1.79-0.84c-0.21-1.79-0.41-4.03-0.41-6.4c0.09-1.57-0.7-2.78-1.75-3.7c-3.38-4.04-1.39-8.06,3.34-8.4 c13.11-1.18,27.48-1.57,41.62-1.86c2.15-0.2,3.55,0.75,3.73,3.98c0.31,4.7,0.82,8.05-0.78,12.75c-0.34,1.66-1.58,2.51-3.38,2.56 l-5.84-0.08c-2.77-0.26-4.41,0.49-4.4,2.73l-0.7,69.83c-0.28,2.9-0.02,5.6,1.45,7.87c5.21,10.03-5.62,13.01-12.71,7.06l-3.69-3.09 C108.92,281.59,107.59,280.27,110.35,278.23"></path> <path class="st4" d="M153.84,194.34c5.2,0,9.42,4.22,9.42,9.43c0,5.2-4.21,9.43-9.42,9.43c-5.2,0-9.42-4.22-9.42-9.43 C144.42,198.56,148.64,194.34,153.84,194.34"></path> <path class="st4" d="M234.25,236.21c1.3,0.93,2.07,0.77,0.82-1.74c-1.62-2.59-3.1-4.84-5.06-7.87c-1.94-1.73-2.78-0.37-1.47,2.1 C230.26,231.82,231.84,233.88,234.25,236.21 M226.18,233.33c2.28,4.59,4.88,8.36,8.05,11.47c1.35,1.1,1.74,2.13,1.63,3.16 c-0.9,27.32-13.93,43.72-14.71,9.13C221.52,249.03,222.7,241.07,226.18,233.33z M143.39,227.16c-0.71-1.28,0.07-2.4,1.16-3.02 c1.48-0.91,4.17-1.35,7.09-1.65c2.56-0.2,4.39,0.37,5.96,1.22c3.24,1.75,5.57,3.56,6.29,5.46c0.49,1.7-0.26,2.88-1.85,3.12 c-1.46-0.08-1.8,0.47-1.72,1.6c-0.66,7.42-1.11,14.67-2.73,22.92c-0.8,4.4-0.79,6.66,0.05,9.92c1.23,3.6,3.6,4,6.65,1.86 c1.89-1.36,3.76-3.73,5.29-6.39c1.9-2.96,2.63-5.85,3.05-8.85l2.11-14.37c0.06-0.38,0.13-0.92-0.16-1.26 c-3.58-3.02-3.04-2.94-1.66-7.39c0.35-1.21-0.05-2.37-0.64-3.08l-1.6-2.92v-2.94h4.65l2.03-9.83c0.41-2.1,0.33-4.08-0.07-5.98 l-1.47-7.97c-0.38-1.36,0.28-2.61,1.14-3.55l5.38-4.5c1.79-1.08,4.09-1.25,6.28-0.4l6.45,4.15c0.9,0.62,1.38,1.53,0.97,3.06 l-4.11,10.56c-2.25,5.09-3.02,10.02-2.75,14.81h7.2h1.49c0.18,0.32,0.36,0.64,0.52,0.97c1.14,2.28,1.57,4.73-0.77,7.85 c1.12,1.53,1.63,3.29,2.14,6.33c0.08,1.14-0.39,1.39-0.92,1.51h-9.18c-5.54,29.64,0.42,47.46,16.65,20.1 c0.19-7.26,2.01-17.6,4.29-28.8c0.75-3.41,1.79-6.38,2.94-9.19c0.82-1.21,2.33-1.33,4.53-0.37h11.51l5.51-3.92 c3.84,6.26,6.84,12.98,7.96,20.71c4.68,12.9,10.03,4.34,15.55-9.43c0.68,3.55,0.84,8.75,0.25,16.06 c-5.12,6.52-10.69,9.69-17.26,5.52c5.65,51.31-31.95,44.65-35.14,21.08c-9.7,16.83-23.64,24.17-34.02,1.28 c-4.18,7.11-21.48,23.02-30.02,0.19c-1.81-6.78-1.73-14.9-0.62-23.78C143.03,240.95,143.65,234.05,143.39,227.16z"></path> <path class="st4" d="M283.47,233.47c0.06-6.05,0.44-14.16,1.96-25.64c2.02-5.08,1.57-8.97-1.37-11.69l11.76-2.75 C324.03,189.91,306.77,229,283.47,233.47 M253.16,198.69c-0.05-0.73-0.33-1.31-0.82-1.74c-2-1.66-2.86-3.12-1.19-4.12 c9.53-5.51,17.92-9.44,25.36-12.07c11.83-4.73,25.05-5.09,33.98,1.72c5.75,4.96,8.57,10.01,11.45,17.85 c2.4,7.49,2.99,15.23-0.36,23.51c-3.93,7.99-10.2,14.93-19.89,20.31c-5.42,3.3-11.61,3.49-18.33,1.55 c-0.87,11.87-0.9,23.04,1.37,32.29c2.89,9.12-2.89,12.56-7.66,9.15c-2.21-3.09-4.49-5.33-6.84-6.31c-3.96-0.79-4.64-2.92-3.83-5.67 c0.95-2.59,1.22-5.67,1.19-8.96l1.19-61.84c-0.27-1.71-2.04-1.76-3.92-1c-6.54,4.46-10.99,5.39-11.68,0V198.69z"></path> <path class="st4" d="M457.2,236.92c1.49,1.73,1.48,1.29,0.77-1.05l-3.69-8.02c-1.62-2.32-3.28-1.49-2.09,1.21 C453.33,231.81,455.06,234.42,457.2,236.92 M447.24,229.19c1.45,5.58,3.41,10.78,7.19,14.61c1.14,0.78,2.01,2.74,2.29,7.31 c-2.65,27.31-9.82,28.55-13.51,19.41C439.62,254.27,441.54,240.78,447.24,229.19z M349.58,227.44c0.95,0.54,1.91,1.09,2.87,1.64 c0.46,10.38-0.19,21.1-3.28,32.57c-3.98,11.18-8.69,16.03-9.02,0C341.6,246.2,344.58,234.39,349.58,227.44z M325.01,276.05 c-4.1-19.51-1.15-34.91,5.55-48.13c3.98-6.23,9.11-9.27,14.93-10.36c2.31-0.3,3.58,0.11,4.67,0.43l4.63,4.94l12.34,3.24 c1.79,0.55,2.63,1.74,2.31,3.71l-3.55,16.83c-2.19,15.7-0.06,23.65,6.77,18.32c2.65-2.58,4.87-5.3,6.34-8.28l4.59-60.53 c0.33-2.35,0.22-4.49-0.89-6.18c-0.79-1.64-0.49-4.58,2.62-7.1l2.62-1.45c5.34-1.91,10.2-1.01,12.65,2.22 c1.94,3.22,2.15,6.53,0.93,9.88c-1.81,4.1-2.8,9.44-3.55,15.13c-2.06,16.42-4.03,32.85-3.7,49.41c1.26,15.24,7.02,13.65,8.33,1.08 c1.48-14.86-1.55-23.16-5.09-30.72l7.25-6.79c3.61-2.13,7.14-1.78,10.49,4.01c3.98,8.07,3.96,19.13-3.24,35.51 c4.9,5.95,11.48,4.62,14.35-11.73c0.42-10.17,2.57-20.4,6.15-30.18c0.56-1.71,2.01-2.46,4.34-2.24c5.64,0.86,11.16,0.39,16.51-2.47 c4.68-1.52,7.51,1.41,8.49,8.8c2.61,14.07,2.76,18.16,9.73,14.54c4.5-4.35,5.75-9.14,4.77-14.23c-0.31-2.49,1.09-5.76,4.62-4.88 c1.2,0.98,3.59,0.89,4.94-0.06c1.49-0.59,2.98-0.44,4.47,0.46l3.09,3.24c0.67,1.24,0.76,3.39-1.24,8.8 c-2.08,9.14-2.55,18.19-2.1,25.85l8.12-19.52c2.44-4.94,3.48-10.05,3.55-15.29c0.02-2.71,0.93-5.01,3.76-6.39l2.44-1.4 c1.84-1.45,4.35-1.55,6.87-0.3c0.75,1.79,1.21,2.25,3.3,3c3,0.74,3.4,3.42,1.21,8.02c-10.5,29.64-6.2,53.43,10.65,30.57 c1.06-1.43,2.52-1.7,2.93,0v7.57c-16.14,21.11-35.68,22.25-32.69-11.57c-3.7,4.94-6.83,11.57-9.13,20.7 c-0.54,2.66-0.82,5.34-0.14,8.17c-0.25,4.95-8.75,6.76-11.57-2.32c-2.38-11.61-2.73-22.11-2.32-34.42 c-4.58,2.6-9.78,3.01-15.58,1.24c2.57,24.23-2.41,38.4-17.43,39.22c-8.18-1.15-15-5.3-18.82-16.06c-4.48,5.53-9.8,6.05-17.24,1.96 c-8.32,16.5-21.74,20.5-28.57-1.81c-8.47,10.62-18.84,14.95-28.54,5.4C341.57,289.79,331.12,290.24,325.01,276.05z"></path> <path class="st4" d="M438.83,208.51c3.51-1.75,6.94-4.35,10.34-7.14c2.23-1.7,4.45-3.47,6.91-4.92c0.79-0.47,1.53-0.31,2.21,0.48 l1.95,5.34c0,0.39-0.13,0.83-0.9,1.11c-6.16,1.7-12.78,4.77-19.77,8.99l-1.37-1.8C438.01,209.94,437.75,209.29,438.83,208.51"></path> <path class="st0" d="M150.79,191.39c5.2,0,9.42,4.22,9.42,9.43c0,5.21-4.21,9.43-9.42,9.43c-5.2,0-9.42-4.22-9.42-9.43 C141.37,195.61,145.58,191.39,150.79,191.39"></path> <path class="st0" d="M107.3,275.28c-0.59-25.5,0.27-52.39,1.27-78.68c-5.05,0.76-10.09,1.44-15.13,1.91 c-1.37,0.11-1.63,0.44-1.79-0.84c-0.21-1.79-0.41-4.03-0.41-6.41c0.09-1.57-0.7-2.77-1.76-3.7c-3.38-4.04-1.39-8.06,3.34-8.41 c13.11-1.18,27.48-1.57,41.62-1.86c2.15-0.2,3.55,0.75,3.73,3.98c0.32,4.7,0.82,8.05-0.78,12.75c-0.34,1.66-1.58,2.51-3.38,2.56 l-5.84-0.08c-2.77-0.26-4.41,0.49-4.4,2.73l-0.7,69.83c-0.28,2.9-0.02,5.6,1.45,7.87c5.22,10.03-5.62,13.02-12.71,7.07l-3.69-3.1 C105.87,278.63,104.53,277.32,107.3,275.28"></path> <path class="st0" d="M231.19,233.26c1.31,0.93,2.07,0.77,0.83-1.74c-1.62-2.59-3.1-4.84-5.06-7.87c-1.94-1.73-2.78-0.37-1.47,2.1 C227.2,228.87,228.79,230.93,231.19,233.26 M223.12,230.38c2.28,4.59,4.87,8.36,8.05,11.47c1.35,1.1,1.74,2.13,1.63,3.16 c-0.91,27.32-13.93,43.71-14.7,9.13C218.46,246.08,219.65,238.12,223.12,230.38z M140.34,224.21c-0.7-1.29,0.08-2.4,1.16-3.02 c1.48-0.92,4.18-1.35,7.09-1.65c2.56-0.2,4.39,0.37,5.96,1.22c3.23,1.75,5.57,3.55,6.29,5.46c0.48,1.7-0.26,2.87-1.85,3.11 c-1.47-0.08-1.8,0.47-1.72,1.6c-0.65,7.42-1.11,14.67-2.72,22.92c-0.8,4.4-0.79,6.65,0.05,9.92c1.23,3.61,3.6,4,6.65,1.86 c1.89-1.35,3.76-3.73,5.3-6.39c1.9-2.96,2.63-5.85,3.05-8.85l2.11-14.37c0.06-0.38,0.13-0.92-0.16-1.26 c-3.58-3.02-3.04-2.93-1.66-7.39c0.35-1.2-0.05-2.37-0.63-3.08l-1.61-2.92v-2.94h4.65l2.03-9.83c0.4-2.1,0.33-4.08-0.07-5.97 l-1.47-7.97c-0.38-1.36,0.28-2.61,1.14-3.54l5.38-4.5c1.78-1.07,4.09-1.25,6.28-0.4l6.45,4.15c0.89,0.62,1.38,1.53,0.96,3.06 l-4.1,10.56c-2.25,5.09-3.02,10.02-2.75,14.81h7.2h1.5c0.18,0.32,0.36,0.64,0.52,0.97c1.14,2.28,1.57,4.73-0.77,7.86 c1.12,1.53,1.63,3.29,2.15,6.33c0.07,1.14-0.39,1.39-0.92,1.51h-9.18c-5.54,29.64,0.42,47.46,16.65,20.1 c0.19-7.26,2.01-17.6,4.29-28.8c0.75-3.41,1.79-6.38,2.94-9.19c0.82-1.21,2.33-1.33,4.53-0.37h11.51l5.51-3.92 c3.84,6.26,6.84,12.98,7.96,20.71c4.68,12.89,10.03,4.33,15.55-9.44c0.68,3.55,0.84,8.75,0.25,16.06 c-5.12,6.52-10.69,9.69-17.26,5.51c5.65,51.31-31.95,44.65-35.14,21.08c-9.71,16.83-23.64,24.17-34.02,1.28 c-4.19,7.11-21.48,23.02-30.02,0.19c-1.8-6.78-1.73-14.9-0.61-23.78C139.98,238,140.59,231.1,140.34,224.21z"></path> <path class="st0" d="M280.41,230.51c0.06-6.05,0.44-14.16,1.96-25.64c2.03-5.08,1.57-8.97-1.37-11.69l11.76-2.75 C320.97,186.95,303.72,226.04,280.41,230.51 M250.1,195.74c-0.05-0.73-0.33-1.32-0.82-1.74c-2-1.66-2.86-3.12-1.19-4.12 c9.53-5.51,17.92-9.44,25.36-12.07c11.83-4.73,25.05-5.09,33.97,1.72c5.76,4.96,8.57,10.01,11.45,17.85 c2.39,7.49,2.99,15.23-0.37,23.51c-3.93,7.99-10.2,14.93-19.89,20.31c-5.42,3.3-11.61,3.49-18.34,1.55 c-0.87,11.87-0.9,23.04,1.37,32.29c2.89,9.12-2.89,12.56-7.66,9.15c-2.22-3.09-4.49-5.32-6.84-6.31c-3.96-0.78-4.64-2.92-3.83-5.67 c0.95-2.59,1.22-5.67,1.19-8.96l1.19-61.83c-0.28-1.71-2.04-1.76-3.92-1.01c-6.54,4.46-10.98,5.39-11.68,0V195.74z"></path> <path class="st0" d="M454.15,233.97c1.49,1.73,1.48,1.28,0.77-1.05l-3.69-8.02c-1.62-2.32-3.28-1.49-2.09,1.2 C450.28,228.86,452.01,231.47,454.15,233.97 M444.19,226.24c1.45,5.58,3.41,10.78,7.19,14.62c1.14,0.78,2.01,2.74,2.29,7.3 c-2.65,27.31-9.82,28.56-13.51,19.41C436.57,251.32,438.49,237.83,444.19,226.24z M346.53,224.48c0.96,0.55,1.91,1.1,2.87,1.64 c0.46,10.38-0.19,21.1-3.28,32.58c-3.98,11.18-8.69,16.02-9.02,0C338.55,243.25,341.52,231.44,346.53,224.48z M321.96,273.1 c-4.1-19.51-1.15-34.91,5.55-48.13c3.98-6.23,9.1-9.27,14.93-10.36c2.31-0.3,3.58,0.11,4.67,0.43l4.63,4.94l12.34,3.24 c1.8,0.55,2.63,1.74,2.32,3.7l-3.55,16.83c-2.19,15.7-0.06,23.65,6.77,18.32c2.65-2.58,4.87-5.31,6.34-8.28l4.59-60.53 c0.34-2.35,0.22-4.49-0.89-6.18c-0.79-1.64-0.49-4.58,2.62-7.1l2.62-1.45c5.34-1.91,10.2-1.01,12.65,2.22 c1.94,3.22,2.14,6.52,0.92,9.88c-1.81,4.11-2.79,9.44-3.55,15.13c-2.06,16.42-4.03,32.85-3.7,49.41 c1.26,15.24,7.02,13.65,8.33,1.08c1.48-14.85-1.55-23.16-5.09-30.72l7.25-6.79c3.61-2.12,7.14-1.78,10.49,4.01 c3.99,8.07,3.96,19.13-3.24,35.51c4.9,5.95,11.48,4.62,14.35-11.73c0.42-10.17,2.57-20.4,6.15-30.18c0.56-1.72,2-2.46,4.34-2.25 c5.64,0.86,11.16,0.39,16.51-2.47c4.68-1.53,7.51,1.41,8.48,8.8c2.61,14.08,2.76,18.16,9.73,14.54c4.5-4.35,5.75-9.13,4.77-14.22 c-0.31-2.49,1.09-5.76,4.63-4.88c1.2,0.98,3.59,0.89,4.94-0.06c1.49-0.59,2.98-0.43,4.48,0.47l3.08,3.24 c0.67,1.24,0.76,3.39-1.23,8.8c-2.08,9.14-2.55,18.2-2.1,25.85l8.12-19.52c2.44-4.94,3.48-10.05,3.55-15.28 c0.02-2.71,0.93-5.01,3.76-6.39l2.44-1.4c1.84-1.45,4.34-1.55,6.87-0.3c0.75,1.79,1.21,2.24,3.3,3c3,0.74,3.4,3.42,1.22,8.02 c-10.5,29.64-6.2,53.43,10.65,30.57c1.06-1.43,2.52-1.7,2.93,0v7.57c-16.14,21.11-35.68,22.25-32.69-11.57 c-3.7,4.94-6.83,11.57-9.13,20.69c-0.54,2.65-0.82,5.34-0.14,8.17c-0.25,4.95-8.75,6.76-11.57-2.32 c-2.38-11.61-2.73-22.11-2.32-34.42c-4.58,2.59-9.78,3.01-15.58,1.24c2.57,24.23-2.41,38.4-17.43,39.22 c-8.18-1.15-15-5.3-18.82-16.06c-4.49,5.52-9.8,6.05-17.24,1.96c-8.32,16.5-21.74,20.5-28.58-1.81 c-8.47,10.62-18.84,14.95-28.54,5.4C338.52,286.84,328.07,287.29,321.96,273.1z"></path> <path class="st0" d="M435.77,205.55c3.51-1.75,6.93-4.36,10.33-7.14c2.23-1.7,4.45-3.47,6.91-4.91c0.8-0.47,1.53-0.31,2.22,0.47 l1.95,5.34c0,0.4-0.13,0.83-0.9,1.11c-6.16,1.7-12.78,4.78-19.77,8.99l-1.37-1.8C434.95,206.99,434.7,206.34,435.77,205.55"></path> <path class="st1" d="M548.79,75.39h3.11c1.48,0,2.49-0.23,3.03-0.67s0.81-1.03,0.81-1.76c0-0.47-0.13-0.89-0.39-1.26 c-0.26-0.37-0.62-0.65-1.08-0.83c-0.47-0.19-1.32-0.27-2.57-0.27h-2.91V75.39z M546.23,84.31V68.45h5.45 c1.86,0,3.21,0.14,4.04,0.43c0.83,0.29,1.5,0.81,1.99,1.54c0.49,0.73,0.74,1.51,0.74,2.33c0,1.16-0.41,2.17-1.24,3.03 c-0.83,0.86-1.93,1.34-3.3,1.45c0.56,0.24,1.01,0.51,1.35,0.84c0.64,0.63,1.42,1.68,2.35,3.15l1.93,3.1h-3.13l-1.41-2.5 c-1.11-1.96-1.99-3.2-2.67-3.69c-0.47-0.36-1.15-0.55-2.05-0.55h-1.5v6.74H546.23z M552.7,63.85c-2.07,0-4.09,0.54-6.05,1.6 c-1.96,1.06-3.49,2.58-4.6,4.55c-1.11,1.97-1.66,4.03-1.66,6.17c0,2.12,0.55,4.16,1.63,6.1c1.09,1.95,2.61,3.47,4.56,4.56 c1.95,1.09,3.98,1.64,6.11,1.64c2.12,0,4.16-0.55,6.11-1.64c1.95-1.09,3.47-2.61,4.55-4.56c1.08-1.95,1.62-3.98,1.62-6.1 c0-2.14-0.55-4.2-1.65-6.17c-1.1-1.97-2.63-3.49-4.6-4.55C556.77,64.38,554.75,63.85,552.7,63.85z M552.7,61.41 c2.48,0,4.89,0.63,7.25,1.9c2.35,1.27,4.19,3.09,5.51,5.46c1.31,2.36,1.97,4.83,1.97,7.4c0,2.54-0.65,4.98-1.95,7.33 c-1.29,2.35-3.11,4.17-5.45,5.47c-2.34,1.3-4.78,1.95-7.33,1.95c-2.55,0-5-0.65-7.33-1.95c-2.34-1.29-4.16-3.12-5.46-5.47 c-1.31-2.34-1.95-4.78-1.95-7.33c0-2.57,0.66-5.04,1.98-7.4c1.32-2.37,3.16-4.18,5.52-5.46C547.81,62.04,550.23,61.41,552.7,61.41z "></path> </g> </svg> 